<svg xmlns="http://www.w3.org/2000/svg" viewBox="0 0 900 1200" font-family="Georgia, serif">
  <rect width="900" height="1200" fill="#e7e5db"/>
  <!-- top brand panel -->
  <rect x="0" y="0" width="900" height="720" fill="#4b5d43"/>
  <text x="80" y="90" font-size="14" fill="#c6d0bb" letter-spacing="4" font-family="Arial">BRAND IDENTITY · 2025</text>
  <!-- leaf mark in ring -->
  <circle cx="450" cy="320" r="140" fill="none" stroke="#d8e0cc" stroke-width="2"/>
  <g fill="#d8e0cc">
    <path d="M450 220 C 410 260 400 320 450 400 C 500 320 490 260 450 220 Z"/>
    <path d="M450 400 C 420 360 380 350 350 360 C 390 400 420 405 450 400 Z"/>
    <path d="M450 400 C 480 360 520 350 550 360 C 510 400 480 405 450 400 Z"/>
    <rect x="447" y="395" width="6" height="55" rx="3"/>
  </g>
  <text x="450" y="530" text-anchor="middle" font-size="72" fill="#f4f1e8" letter-spacing="6">Botanica</text>
  <text x="450" y="575" text-anchor="middle" font-size="18" fill="#b9c4ad" letter-spacing="8" font-family="Arial">NATURAL SKINCARE</text>
  <!-- palette + variants -->
  <text x="80" y="800" font-size="14" fill="#7a8570" letter-spacing="3" font-family="Arial">PALETTE</text>
  <rect x="80" y="820" width="90" height="90" rx="10" fill="#4b5d43"/>
  <rect x="185" y="820" width="90" height="90" rx="10" fill="#8ba17a"/>
  <rect x="290" y="820" width="90" height="90" rx="10" fill="#d8e0cc"/>
  <rect x="395" y="820" width="90" height="90" rx="10" fill="#c9a76a"/>
  <text x="560" y="800" font-size="14" fill="#7a8570" letter-spacing="3" font-family="Arial">MARK</text>
  <circle cx="640" cy="865" r="52" fill="#4b5d43"/>
  <text x="640" y="882" text-anchor="middle" font-size="46" fill="#d8e0cc">B</text>
  <circle cx="760" cy="865" r="52" fill="none" stroke="#4b5d43" stroke-width="2"/>
  <text x="760" y="882" text-anchor="middle" font-size="46" fill="#4b5d43">B</text>
  <!-- business card mock -->
  <rect x="80" y="960" width="740" height="180" rx="14" fill="#f4f1e8" stroke="#d8d3c4"/>
  <text x="115" y="1030" font-size="34" fill="#4b5d43" letter-spacing="3">Botanica</text>
  <text x="115" y="1065" font-size="14" fill="#8a8f7f" font-family="Arial" letter-spacing="2">NATURAL SKINCARE</text>
  <text x="115" y="1110" font-size="14" fill="#8a8f7f" font-family="Arial">hello@botanica.co · @botanica</text>
  <g fill="#8ba17a"><path d="M720 1010 C 695 1030 690 1060 720 1100 C 750 1060 745 1030 720 1010 Z"/></g>
</svg>
